<svg xmlns="http://www.w3.org/2000/svg" xmlns:xlink="http://www.w3.org/1999/xlink" width="121" zoomAndPan="magnify" viewBox="0 0 90.75 42.75" height="57" preserveAspectRatio="xMidYMid meet" version="1.0"><defs><g/><clipPath id="0b886ee4b0"><path d="M 22 31 L 54 31 L 54 42.5 L 22 42.5 Z M 22 31 " clip-rule="nonzero"/></clipPath><clipPath id="1f22964657"><path d="M 26 19 L 89.847656 19 L 89.847656 41 L 26 41 Z M 26 19 " clip-rule="nonzero"/></clipPath></defs><g clip-path="url(#0b886ee4b0)"><path fill="#e5f0f6" d="M 52.988281 31.886719 C 53.277344 31.789062 53.621094 31.613281 53.605469 31.308594 C 53.582031 30.9375 53.957031 30.996094 53.59375 31.054688 C 52.960938 31.152344 25.199219 40.757812 22.789062 42.097656 C 21.980469 42.546875 38.214844 36.84375 41.558594 35.722656 C 43.460938 35.085938 51.089844 32.523438 52.988281 31.886719 Z M 52.988281 31.886719 " fill-opacity="1" fill-rule="nonzero"/></g><g clip-path="url(#1f22964657)"><path fill="#46afe3" d="M 89.832031 21.195312 C 89.757812 19.839844 85.664062 18.707031 84.019531 19.074219 C 79.550781 20.066406 67.914062 25.144531 66.695312 25.414062 C 62.882812 25.355469 60.023438 25.253906 56.234375 25.671875 C 58.40625 26.289062 60.566406 26.667969 62.484375 27.140625 C 60.382812 27.875 58.042969 28.707031 55.855469 29.292969 C 54.890625 29.386719 50.355469 27.046875 49.140625 26.503906 C 47.992188 25.992188 43.925781 25.890625 42.964844 26.703125 C 43.769531 28.355469 47.472656 29.488281 48.773438 30.773438 C 48.394531 30.523438 47.980469 30.402344 47.527344 30.40625 C 47.074219 30.410156 46.660156 30.542969 46.285156 30.804688 C 45.992188 31.15625 46.535156 32.226562 48.378906 32.183594 C 49.683594 32.148438 50.992188 32.105469 52.300781 32.046875 C 51.222656 32.46875 49.820312 32.980469 47.28125 33.816406 C 43.382812 35.097656 30.761719 39.335938 26.851562 40.855469 C 33.75 38.667969 39.726562 36.828125 47.28125 34.316406 C 47.433594 34.65625 47.726562 35.253906 47.875 35.589844 C 55.667969 32.894531 59.921875 32.453125 61.09375 32.015625 C 61.929688 31.699219 64.816406 31.03125 65.453125 29.96875 C 65.550781 29.9375 65.648438 29.90625 65.746094 29.871094 C 67.113281 30.136719 68.46875 30.101562 69.816406 29.761719 C 69.824219 29.394531 69.835938 29.027344 69.84375 28.660156 C 71.488281 28.914062 73.128906 28.875 74.761719 28.546875 C 74.691406 28.164062 74.617188 27.78125 74.542969 27.398438 C 79.675781 25.546875 84.480469 23.851562 89.832031 21.195312 Z M 89.832031 21.195312 " fill-opacity="1" fill-rule="nonzero"/></g><g fill="#000000" fill-opacity="1"><g transform="translate(14.494647, 18.03596)"><g><path d="M 1 0 C 0.914062 0 0.847656 -0.0195312 0.796875 -0.0625 C 0.753906 -0.113281 0.734375 -0.179688 0.734375 -0.265625 L 0.734375 -9.96875 C 0.734375 -10.050781 0.753906 -10.113281 0.796875 -10.15625 C 0.847656 -10.207031 0.914062 -10.234375 1 -10.234375 L 2.875 -10.234375 C 3.007812 -10.234375 3.113281 -10.175781 3.1875 -10.0625 L 5.140625 -6.921875 C 5.179688 -6.847656 5.226562 -6.847656 5.28125 -6.921875 L 7.234375 -10.0625 C 7.304688 -10.175781 7.410156 -10.234375 7.546875 -10.234375 L 9.4375 -10.234375 C 9.507812 -10.234375 9.570312 -10.207031 9.625 -10.15625 C 9.675781 -10.113281 9.703125 -10.050781 9.703125 -9.96875 L 9.703125 -0.265625 C 9.703125 -0.179688 9.675781 -0.113281 9.625 -0.0625 C 9.570312 -0.0195312 9.507812 0 9.4375 0 L 7.53125 0 C 7.457031 0 7.394531 -0.0195312 7.34375 -0.0625 C 7.289062 -0.113281 7.265625 -0.179688 7.265625 -0.265625 L 7.265625 -5.984375 C 7.265625 -6.035156 7.25 -6.0625 7.21875 -6.0625 C 7.195312 -6.070312 7.175781 -6.054688 7.15625 -6.015625 L 5.96875 -4.078125 C 5.894531 -3.960938 5.789062 -3.90625 5.65625 -3.90625 L 4.765625 -3.90625 C 4.628906 -3.90625 4.523438 -3.960938 4.453125 -4.078125 L 3.28125 -6.015625 C 3.257812 -6.054688 3.234375 -6.070312 3.203125 -6.0625 C 3.171875 -6.0625 3.15625 -6.035156 3.15625 -5.984375 L 3.15625 -0.265625 C 3.15625 -0.179688 3.128906 -0.113281 3.078125 -0.0625 C 3.035156 -0.0195312 2.972656 0 2.890625 0 Z M 1 0 "/></g></g></g><g fill="#000000" fill-opacity="1"><g transform="translate(26.967538, 18.03596)"><g><path d="M 0.984375 0 C 0.898438 0 0.832031 -0.0195312 0.78125 -0.0625 C 0.738281 -0.113281 0.71875 -0.179688 0.71875 -0.265625 L 0.71875 -9.96875 C 0.71875 -10.050781 0.738281 -10.113281 0.78125 -10.15625 C 0.832031 -10.207031 0.898438 -10.234375 0.984375 -10.234375 L 2.875 -10.234375 C 2.957031 -10.234375 3.019531 -10.207031 3.0625 -10.15625 C 3.113281 -10.113281 3.140625 -10.050781 3.140625 -9.96875 L 3.140625 -0.265625 C 3.140625 -0.179688 3.113281 -0.113281 3.0625 -0.0625 C 3.019531 -0.0195312 2.957031 0 2.875 0 Z M 0.984375 0 "/></g></g></g><g fill="#000000" fill-opacity="1"><g transform="translate(32.889697, 18.03596)"><g><path d="M 4.46875 0.109375 C 3.695312 0.109375 3.015625 -0.0390625 2.421875 -0.34375 C 1.828125 -0.65625 1.367188 -1.09375 1.046875 -1.65625 C 0.722656 -2.226562 0.5625 -2.882812 0.5625 -3.625 L 0.5625 -6.625 C 0.5625 -7.363281 0.722656 -8.015625 1.046875 -8.578125 C 1.367188 -9.140625 1.828125 -9.578125 2.421875 -9.890625 C 3.015625 -10.203125 3.695312 -10.359375 4.46875 -10.359375 C 5.238281 -10.359375 5.921875 -10.207031 6.515625 -9.90625 C 7.117188 -9.613281 7.582031 -9.207031 7.90625 -8.6875 C 8.226562 -8.164062 8.390625 -7.59375 8.390625 -6.96875 C 8.390625 -6.8125 8.300781 -6.734375 8.125 -6.734375 L 6.234375 -6.734375 C 6.054688 -6.734375 5.96875 -6.757812 5.96875 -6.8125 L 5.96875 -6.90625 C 5.96875 -7.28125 5.832031 -7.601562 5.5625 -7.875 C 5.289062 -8.144531 4.925781 -8.28125 4.46875 -8.28125 C 4.019531 -8.28125 3.660156 -8.132812 3.390625 -7.84375 C 3.117188 -7.550781 2.984375 -7.171875 2.984375 -6.703125 L 2.984375 -3.546875 C 2.984375 -3.085938 3.132812 -2.707031 3.4375 -2.40625 C 3.738281 -2.113281 4.117188 -1.96875 4.578125 -1.96875 C 5.003906 -1.96875 5.347656 -2.082031 5.609375 -2.3125 C 5.878906 -2.539062 6.015625 -2.863281 6.015625 -3.28125 L 6.015625 -3.65625 C 6.015625 -3.726562 5.976562 -3.765625 5.90625 -3.765625 L 4.5625 -3.765625 C 4.488281 -3.765625 4.425781 -3.785156 4.375 -3.828125 C 4.320312 -3.878906 4.296875 -3.941406 4.296875 -4.015625 L 4.296875 -5.453125 C 4.296875 -5.535156 4.320312 -5.597656 4.375 -5.640625 C 4.425781 -5.691406 4.488281 -5.71875 4.5625 -5.71875 L 8.125 -5.71875 C 8.207031 -5.71875 8.269531 -5.691406 8.3125 -5.640625 C 8.363281 -5.597656 8.390625 -5.535156 8.390625 -5.453125 L 8.390625 -3.546875 C 8.390625 -2.816406 8.226562 -2.175781 7.90625 -1.625 C 7.582031 -1.070312 7.125 -0.644531 6.53125 -0.34375 C 5.9375 -0.0390625 5.25 0.109375 4.46875 0.109375 Z M 4.46875 0.109375 "/></g></g></g><g fill="#000000" fill-opacity="1"><g transform="translate(43.827261, 18.03596)"><g><path d="M 6.28125 0 C 6.132812 0 6.03125 -0.0664062 5.96875 -0.203125 L 4.265625 -4 C 4.242188 -4.050781 4.207031 -4.078125 4.15625 -4.078125 L 3.25 -4.078125 C 3.175781 -4.078125 3.140625 -4.046875 3.140625 -3.984375 L 3.140625 -0.265625 C 3.140625 -0.179688 3.113281 -0.113281 3.0625 -0.0625 C 3.019531 -0.0195312 2.957031 0 2.875 0 L 0.984375 0 C 0.898438 0 0.832031 -0.0195312 0.78125 -0.0625 C 0.738281 -0.113281 0.71875 -0.179688 0.71875 -0.265625 L 0.71875 -9.96875 C 0.71875 -10.050781 0.738281 -10.113281 0.78125 -10.15625 C 0.832031 -10.207031 0.898438 -10.234375 0.984375 -10.234375 L 5.234375 -10.234375 C 5.878906 -10.234375 6.441406 -10.101562 6.921875 -9.84375 C 7.410156 -9.582031 7.789062 -9.207031 8.0625 -8.71875 C 8.332031 -8.238281 8.46875 -7.6875 8.46875 -7.0625 C 8.46875 -6.414062 8.304688 -5.851562 7.984375 -5.375 C 7.671875 -4.90625 7.234375 -4.5625 6.671875 -4.34375 C 6.597656 -4.3125 6.578125 -4.265625 6.609375 -4.203125 L 8.484375 -0.3125 L 8.515625 -0.1875 C 8.515625 -0.0625 8.4375 0 8.28125 0 Z M 3.25 -8.15625 C 3.175781 -8.15625 3.140625 -8.125 3.140625 -8.0625 L 3.140625 -6.046875 C 3.140625 -5.972656 3.175781 -5.9375 3.25 -5.9375 L 4.84375 -5.9375 C 5.195312 -5.9375 5.488281 -6.035156 5.71875 -6.234375 C 5.945312 -6.429688 6.0625 -6.695312 6.0625 -7.03125 C 6.0625 -7.375 5.945312 -7.644531 5.71875 -7.84375 C 5.488281 -8.050781 5.195312 -8.15625 4.84375 -8.15625 Z M 3.25 -8.15625 "/></g></g></g><g fill="#000000" fill-opacity="1"><g transform="translate(54.852557, 18.03596)"><g><path d="M 7.46875 0 C 7.3125 0 7.21875 -0.0703125 7.1875 -0.21875 L 6.84375 -1.421875 C 6.832031 -1.472656 6.796875 -1.5 6.734375 -1.5 L 3.421875 -1.5 C 3.359375 -1.5 3.320312 -1.472656 3.3125 -1.421875 L 2.96875 -0.21875 C 2.925781 -0.0703125 2.828125 0 2.671875 0 L 0.609375 0 C 0.515625 0 0.445312 -0.0234375 0.40625 -0.078125 C 0.363281 -0.128906 0.359375 -0.203125 0.390625 -0.296875 L 3.46875 -10.015625 C 3.519531 -10.160156 3.617188 -10.234375 3.765625 -10.234375 L 6.359375 -10.234375 C 6.523438 -10.234375 6.628906 -10.160156 6.671875 -10.015625 L 9.75 -0.296875 C 9.757812 -0.273438 9.765625 -0.238281 9.765625 -0.1875 C 9.765625 -0.0625 9.6875 0 9.53125 0 Z M 3.90625 -3.46875 C 3.90625 -3.40625 3.9375 -3.375 4 -3.375 L 6.15625 -3.375 C 6.195312 -3.375 6.222656 -3.382812 6.234375 -3.40625 C 6.253906 -3.4375 6.257812 -3.46875 6.25 -3.5 L 5.140625 -7.390625 C 5.128906 -7.429688 5.109375 -7.453125 5.078125 -7.453125 C 5.054688 -7.453125 5.035156 -7.429688 5.015625 -7.390625 L 3.90625 -3.5 Z M 3.90625 -3.46875 "/></g></g></g><g fill="#000000" fill-opacity="1"><g transform="translate(67.047624, 18.03596)"><g><path d="M 8.03125 -10.234375 C 8.101562 -10.234375 8.164062 -10.207031 8.21875 -10.15625 C 8.269531 -10.113281 8.296875 -10.050781 8.296875 -9.96875 L 8.296875 -8.40625 C 8.296875 -8.332031 8.269531 -8.269531 8.21875 -8.21875 C 8.164062 -8.164062 8.101562 -8.140625 8.03125 -8.140625 L 5.59375 -8.140625 C 5.519531 -8.140625 5.484375 -8.109375 5.484375 -8.046875 L 5.484375 -0.265625 C 5.484375 -0.179688 5.457031 -0.113281 5.40625 -0.0625 C 5.363281 -0.0195312 5.300781 0 5.21875 0 L 3.3125 0 C 3.238281 0 3.175781 -0.0195312 3.125 -0.0625 C 3.082031 -0.113281 3.0625 -0.179688 3.0625 -0.265625 L 3.0625 -8.046875 C 3.0625 -8.109375 3.023438 -8.140625 2.953125 -8.140625 L 0.59375 -8.140625 C 0.519531 -8.140625 0.457031 -8.164062 0.40625 -8.21875 C 0.363281 -8.269531 0.34375 -8.332031 0.34375 -8.40625 L 0.34375 -9.96875 C 0.34375 -10.050781 0.363281 -10.113281 0.40625 -10.15625 C 0.457031 -10.207031 0.519531 -10.234375 0.59375 -10.234375 Z M 8.03125 -10.234375 "/></g></g></g><g fill="#000000" fill-opacity="1"><g transform="translate(77.721986, 18.03596)"><g><path d="M 7.984375 -8.421875 C 7.984375 -8.347656 7.957031 -8.285156 7.90625 -8.234375 C 7.863281 -8.179688 7.800781 -8.15625 7.71875 -8.15625 L 3.25 -8.15625 C 3.175781 -8.15625 3.140625 -8.125 3.140625 -8.0625 L 3.140625 -6.3125 C 3.140625 -6.25 3.175781 -6.21875 3.25 -6.21875 L 6.0625 -6.21875 C 6.144531 -6.21875 6.207031 -6.191406 6.25 -6.140625 C 6.300781 -6.085938 6.328125 -6.023438 6.328125 -5.953125 L 6.328125 -4.421875 C 6.328125 -4.335938 6.300781 -4.269531 6.25 -4.21875 C 6.207031 -4.175781 6.144531 -4.15625 6.0625 -4.15625 L 3.25 -4.15625 C 3.175781 -4.15625 3.140625 -4.117188 3.140625 -4.046875 L 3.140625 -2.171875 C 3.140625 -2.109375 3.175781 -2.078125 3.25 -2.078125 L 7.71875 -2.078125 C 7.800781 -2.078125 7.863281 -2.050781 7.90625 -2 C 7.957031 -1.957031 7.984375 -1.894531 7.984375 -1.8125 L 7.984375 -0.265625 C 7.984375 -0.179688 7.957031 -0.113281 7.90625 -0.0625 C 7.863281 -0.0195312 7.800781 0 7.71875 0 L 0.984375 0 C 0.898438 0 0.832031 -0.0195312 0.78125 -0.0625 C 0.738281 -0.113281 0.71875 -0.179688 0.71875 -0.265625 L 0.71875 -9.96875 C 0.71875 -10.050781 0.738281 -10.113281 0.78125 -10.15625 C 0.832031 -10.207031 0.898438 -10.234375 0.984375 -10.234375 L 7.71875 -10.234375 C 7.800781 -10.234375 7.863281 -10.207031 7.90625 -10.15625 C 7.957031 -10.113281 7.984375 -10.050781 7.984375 -9.96875 Z M 7.984375 -8.421875 "/></g></g></g></svg>